<svg width="17" height="18" viewBox="0 0 17 18" fill="none" xmlns="http://www.w3.org/2000/svg">
<path id="Vector" d="M15.3327 1.66665H13.3327V0.99998C13.3327 0.823169 13.2624 0.653599 13.1374 0.528575C13.0124 0.403551 12.8428 0.333313 12.666 0.333313C12.4892 0.333313 12.3196 0.403551 12.1946 0.528575C12.0696 0.653599 11.9993 0.823169 11.9993 0.99998V1.66665H5.33268V0.99998C5.33268 0.823169 5.26244 0.653599 5.13742 0.528575C5.0124 0.403551 4.84283 0.333313 4.66602 0.333313C4.4892 0.333313 4.31964 0.403551 4.19461 0.528575C4.06959 0.653599 3.99935 0.823169 3.99935 0.99998V1.66665H1.99935C1.64573 1.66665 1.30659 1.80712 1.05654 2.05717C0.806491 2.30722 0.666016 2.64636 0.666016 2.99998V16.3333C0.666016 16.6869 0.806491 17.0261 1.05654 17.2761C1.30659 17.5262 1.64573 17.6666 1.99935 17.6666H15.3327C15.6863 17.6666 16.0254 17.5262 16.2755 17.2761C16.5255 17.0261 16.666 16.6869 16.666 16.3333V2.99998C16.666 2.64636 16.5255 2.30722 16.2755 2.05717C16.0254 1.80712 15.6863 1.66665 15.3327 1.66665ZM7.33268 14.3333C7.33268 14.5101 7.26244 14.6797 7.13742 14.8047C7.0124 14.9297 6.84283 15 6.66602 15C6.4892 15 6.31964 14.9297 6.19461 14.8047C6.06959 14.6797 5.99935 14.5101 5.99935 14.3333V10.0783L5.63102 10.2633C5.47277 10.3424 5.28957 10.3555 5.12173 10.2995C4.95388 10.2436 4.81514 10.1232 4.73602 9.96498C4.65689 9.80673 4.64387 9.62354 4.69982 9.45569C4.75577 9.28785 4.8761 9.1491 5.03435 9.06998L6.36768 8.40331C6.46936 8.35243 6.58236 8.3284 6.69594 8.33351C6.80952 8.33861 6.91991 8.37268 7.01662 8.43247C7.11332 8.49226 7.19313 8.5758 7.24845 8.67513C7.30377 8.77446 7.33276 8.88628 7.33268 8.99998V14.3333ZM11.9993 13.6666C12.1762 13.6666 12.3457 13.7369 12.4708 13.8619C12.5958 13.9869 12.666 14.1565 12.666 14.3333C12.666 14.5101 12.5958 14.6797 12.4708 14.8047C12.3457 14.9297 12.1762 15 11.9993 15H9.33268C9.20887 15 9.08751 14.9655 8.98219 14.9004C8.87688 14.8353 8.79177 14.7422 8.7364 14.6315C8.68103 14.5207 8.65759 14.3968 8.66871 14.2734C8.67983 14.1501 8.72507 14.0324 8.79935 13.9333L11.1977 10.7358C11.2522 10.6632 11.2914 10.5802 11.3127 10.4919C11.334 10.4036 11.3371 10.3119 11.3217 10.2224C11.3063 10.1328 11.2727 10.0474 11.2231 9.97134C11.1735 9.89525 11.1089 9.8301 11.0332 9.77988C10.9575 9.72967 10.8724 9.69545 10.783 9.67933C10.6936 9.66321 10.6018 9.66553 10.5134 9.68614C10.4249 9.70675 10.3416 9.74522 10.2685 9.79919C10.1955 9.85316 10.1342 9.92148 10.0885 9.99998C10.046 10.0782 9.98831 10.1471 9.91875 10.2027C9.8492 10.2583 9.76922 10.2994 9.68353 10.3235C9.59785 10.3477 9.50819 10.3544 9.41986 10.3434C9.33152 10.3323 9.24629 10.3037 9.1692 10.2591C9.09211 10.2146 9.02472 10.1551 8.97101 10.0841C8.91729 10.0131 8.87834 9.93206 8.85645 9.84577C8.83456 9.75948 8.83018 9.66967 8.84356 9.58166C8.85694 9.49365 8.88781 9.4092 8.93435 9.33331C9.15457 8.95222 9.49435 8.65442 9.90103 8.48606C10.3077 8.31771 10.7586 8.28821 11.1837 8.40214C11.6088 8.51607 11.9845 8.76706 12.2525 9.11621C12.5205 9.46536 12.6659 9.89317 12.666 10.3333C12.6674 10.7681 12.5257 11.1913 12.2627 11.5375L10.666 13.6666H11.9993ZM1.99935 5.66665V2.99998H3.99935V3.66665C3.99935 3.84346 4.06959 4.01303 4.19461 4.13805C4.31964 4.26308 4.4892 4.33331 4.66602 4.33331C4.84283 4.33331 5.0124 4.26308 5.13742 4.13805C5.26244 4.01303 5.33268 3.84346 5.33268 3.66665V2.99998H11.9993V3.66665C11.9993 3.84346 12.0696 4.01303 12.1946 4.13805C12.3196 4.26308 12.4892 4.33331 12.666 4.33331C12.8428 4.33331 13.0124 4.26308 13.1374 4.13805C13.2624 4.01303 13.3327 3.84346 13.3327 3.66665V2.99998H15.3327V5.66665H1.99935Z" fill="#1E1E1E" fill-opacity="0.8"/>
</svg>
