<svg width="21" height="20" viewBox="0 0 21 20" fill="none" xmlns="http://www.w3.org/2000/svg">
<g id="iconamoon:location-pin-fill">
<path id="Vector" fill-rule="evenodd" clip-rule="evenodd" d="M15.5071 3.99433C14.1352 2.62249 12.2746 1.85181 10.3346 1.85181C8.39449 1.85181 6.53388 2.62249 5.16205 3.99433C3.79022 5.36616 3.01953 7.22676 3.01953 9.16683C3.01953 11.1069 3.79022 12.9675 5.16205 14.3393L9.74538 18.9227C9.90166 19.0789 10.1136 19.1666 10.3346 19.1666C10.5555 19.1666 10.7674 19.0789 10.9237 18.9227L15.5071 14.3393C16.1863 13.6601 16.7251 12.8537 17.0928 11.9662C17.4604 11.0787 17.6496 10.1274 17.6496 9.16683C17.6496 8.2062 17.4604 7.25499 17.0928 6.36749C16.7251 5.47999 16.1863 4.67359 15.5071 3.99433ZM9.08455 9.16683C9.08455 8.83531 9.21625 8.51736 9.45067 8.28294C9.68509 8.04852 10.003 7.91683 10.3346 7.91683H10.3429C10.6744 7.91683 10.9923 8.04852 11.2268 8.28294C11.4612 8.51736 11.5929 8.83531 11.5929 9.16683V9.17516C11.5929 9.50668 11.4612 9.82462 11.2268 10.059C10.9923 10.2935 10.6744 10.4252 10.3429 10.4252H10.3346C10.003 10.4252 9.68509 10.2935 9.45067 10.059C9.21625 9.82462 9.08455 9.50668 9.08455 9.17516V9.16683Z" fill="#1E1E1E"/>
</g>
</svg>
